<svg xmlns="http://www.w3.org/2000/svg" viewBox="0 0 18.571 15.714">
  <defs>
    <style>
      .cls-1 {
        fill: #e4e4e4;
      }
    </style>
  </defs>
  <path id="Path_1" data-name="Path 1" class="cls-1" d="M18.571-10.357V-2.5a2.406,2.406,0,0,1-.737,1.763A2.406,2.406,0,0,1,16.071,0H2.5A2.406,2.406,0,0,1,.737-.737,2.406,2.406,0,0,1,0-2.5V-13.214a2.406,2.406,0,0,1,.737-1.763A2.406,2.406,0,0,1,2.5-15.714H6.071a2.406,2.406,0,0,1,1.763.737,2.406,2.406,0,0,1,.737,1.763v.357h7.5a2.406,2.406,0,0,1,1.763.737A2.406,2.406,0,0,1,18.571-10.357Z" transform="translate(0 15.714)"/>
</svg>
