<svg xmlns="http://www.w3.org/2000/svg" viewBox="0 0 33 33">
  <defs>
    <style>
      .cls-1 {
        fill: #fff;
        opacity: 0;
      }
    </style>
  </defs>
  <g id="Group_7" data-name="Group 7" transform="translate(-1276 -825)">
    <rect id="Rectangle_23" data-name="Rectangle 23" class="cls-1" width="33" height="33" transform="translate(1276 825)"/>
    <g id="Group_6" data-name="Group 6" transform="translate(351 362)">
      <path id="Path_10" data-name="Path 10" d="M2.439,112.9H15.794a2.44,2.44,0,0,0,2.364-1.835l.026-.1v-.105q0-1.716,0-3.433c0-3.692.008-6.523.031-9.18v-.071l-.012-.07a2.433,2.433,0,0,0-2.406-2.036H2.439A2.443,2.443,0,0,0,0,98.512v11.947A2.443,2.443,0,0,0,2.439,112.9ZM1.62,98.512a.82.82,0,0,1,.819-.819H15.794l.748.489.048.138c-.023,2.638-.032,5.453-.031,9.111q0,1.657,0,3.316a.82.82,0,0,1-.768.535H2.439a.82.82,0,0,1-.819-.819V98.517Z" transform="translate(928 374.93)"/>
      <path id="Path_11" data-name="Path 11" d="M380.768,122.721a1.768,1.768,0,0,0-1.742-.012l-4.726,2.33,0,.508c.019,2.7.02,5.491.022,7.95v.5l4.7,2.316a2.053,2.053,0,0,0,.9.223,1.573,1.573,0,0,0,.838-.234,1.768,1.768,0,0,0,.779-1.557V124.275A1.766,1.766,0,0,0,380.768,122.721Zm-.842,12.028a.111.111,0,1,1-.184.117l-3.8-1.874c0-2.178,0-4.584-.018-6.947l3.815-1.88a.111.111,0,1,1,.185.117v10.467Z" transform="translate(573.399 349.904)"/>
      <rect id="Rectangle_19" data-name="Rectangle 19" width="15.586" height="14.322" transform="translate(929.264 472.264)"/>
      <path id="Path_12" data-name="Path 12" d="M0,.677l5.055-1.7v11.8L0,9.081Z" transform="translate(948.641 474.541)"/>
    </g>
  </g>
</svg>
