<svg xmlns="http://www.w3.org/2000/svg" viewBox="0 0 33 33">
  <defs>
    <style>
      .cls-1 {
        fill: #fff;
        opacity: 0;
      }
    </style>
  </defs>
  <g id="Group_6" data-name="Group 6" transform="translate(-1276 -825)">
    <path id="Path_13" data-name="Path 13" d="M9.736-29.68a3.583,3.583,0,0,1,2.627-1.095,3.572,3.572,0,0,1,2.621,1.088,3.572,3.572,0,0,1,1.088,2.621,3.572,3.572,0,0,1-1.088,2.621,3.572,3.572,0,0,1-2.621,1.088,3.572,3.572,0,0,1-2.621-1.088,3.572,3.572,0,0,1-1.088-2.621A3.562,3.562,0,0,1,9.736-29.68Zm11.693-6.452a3.176,3.176,0,0,1,2.331.966,3.176,3.176,0,0,1,.966,2.331V-21.3a3.176,3.176,0,0,1-.966,2.331A3.176,3.176,0,0,1,21.429-18H3.3a3.176,3.176,0,0,1-2.331-.966A3.176,3.176,0,0,1,0-21.3V-32.835a3.176,3.176,0,0,1,.966-2.331A3.176,3.176,0,0,1,3.3-36.132H6.181l.657-1.751a2.391,2.391,0,0,1,.9-1.088,2.293,2.293,0,0,1,1.333-.457h6.593a2.293,2.293,0,0,1,1.333.457,2.391,2.391,0,0,1,.9,1.088l.657,1.751ZM8.28-22.984A5.588,5.588,0,0,0,12.363-21.3a5.556,5.556,0,0,0,4.076-1.693,5.556,5.556,0,0,0,1.693-4.076,5.556,5.556,0,0,0-1.693-4.076,5.556,5.556,0,0,0-4.076-1.693,5.556,5.556,0,0,0-4.076,1.693,5.556,5.556,0,0,0-1.693,4.076A5.588,5.588,0,0,0,8.28-22.984Z" transform="translate(1280 870.429)"/>
    <rect id="Rectangle_23" data-name="Rectangle 23" class="cls-1" width="33" height="33" transform="translate(1276 825)"/>
  </g>
</svg>
