<svg xmlns="http://www.w3.org/2000/svg" viewBox="0 0 33 33">
  <defs>
    <style>
      .cls-1 {
        fill: #fff;
        opacity: 0;
      }
    </style>
  </defs>
  <g id="Group_6" data-name="Group 6" transform="translate(-1269 -877)">
    <path id="Path_14" data-name="Path 14" d="M18.2-28.308v2.022a8.774,8.774,0,0,1-2.33,6.074A8.823,8.823,0,0,1,10.11-17.25v2.085h4.044a.972.972,0,0,1,.711.3.972.972,0,0,1,.3.711.972.972,0,0,1-.3.711.972.972,0,0,1-.711.3H4.044a.972.972,0,0,1-.711-.3.972.972,0,0,1-.3-.711.972.972,0,0,1,.3-.711.972.972,0,0,1,.711-.3H8.088V-17.25A8.823,8.823,0,0,1,2.33-20.212,8.774,8.774,0,0,1,0-26.286v-2.022a.972.972,0,0,1,.3-.711.972.972,0,0,1,.711-.3.972.972,0,0,1,.711.3.972.972,0,0,1,.3.711v2.022a6.816,6.816,0,0,0,2.077,5,6.816,6.816,0,0,0,5,2.077,6.816,6.816,0,0,0,5-2.077,6.816,6.816,0,0,0,2.077-5v-2.022a.972.972,0,0,1,.3-.711.972.972,0,0,1,.711-.3.972.972,0,0,1,.711.3A.972.972,0,0,1,18.2-28.308Zm-4.044-6.066v8.088a4.868,4.868,0,0,1-1.485,3.57A4.868,4.868,0,0,1,9.1-21.231a4.868,4.868,0,0,1-3.57-1.485,4.868,4.868,0,0,1-1.485-3.57v-8.088a4.868,4.868,0,0,1,1.485-3.57A4.868,4.868,0,0,1,9.1-39.429a4.868,4.868,0,0,1,3.57,1.485A4.868,4.868,0,0,1,14.154-34.374Z" transform="translate(1276 920.429)"/>
    <rect id="Rectangle_23" data-name="Rectangle 23" class="cls-1" width="33" height="33" transform="translate(1269 877)"/>
  </g>
</svg>
