<svg xmlns="http://www.w3.org/2000/svg" viewBox="0 0 10.938 11.938">
  <defs>
    <style>
      .cls-1 {
        fill: #464646;
      }
    </style>
  </defs>
  <path id="Path_2" data-name="Path 2" class="cls-1" d="M10.969-1.18A2.079,2.079,0,0,1,10.352.352,2.079,2.079,0,0,1,8.82.969,2.513,2.513,0,0,1,6.984.188L.914-5.875A2.922,2.922,0,0,1,.031-7.992,2.884,2.884,0,0,1,.891-10.1a2.845,2.845,0,0,1,2.1-.867,2.94,2.94,0,0,1,2.133.883L9.852-5.352a.239.239,0,0,1,.078.172q0,.125-.238.363t-.363.238a.247.247,0,0,1-.18-.078L4.414-9.4A1.97,1.97,0,0,0,3-10a1.876,1.876,0,0,0-1.4.586A1.954,1.954,0,0,0,1.031-8a1.931,1.931,0,0,0,.594,1.414L7.688-.516A1.557,1.557,0,0,0,8.82-.023a1.123,1.123,0,0,0,.828-.328,1.123,1.123,0,0,0,.328-.828,1.557,1.557,0,0,0-.492-1.133L4.945-6.852a.671.671,0,0,0-.469-.187.508.508,0,0,0-.375.148.508.508,0,0,0-.148.375.666.666,0,0,0,.2.461l3.2,3.2a.239.239,0,0,1,.078.172q0,.125-.242.367T6.82-2.07a.239.239,0,0,1-.172-.078l-3.2-3.2a1.558,1.558,0,0,1-.492-1.164A1.478,1.478,0,0,1,3.4-7.6a1.478,1.478,0,0,1,1.086-.445,1.558,1.558,0,0,1,1.164.492l4.539,4.539A2.48,2.48,0,0,1,10.969-1.18Z" transform="translate(-0.031 10.969)"/>
</svg>
