<svg xmlns="http://www.w3.org/2000/svg" viewBox="0 0 14 14">
  <defs>
    <style>
      .cls-1 {
        fill: #fff;
      }
    </style>
  </defs>
  <path id="Path_3" data-name="Path 3" class="cls-1" d="M13.781-11.914a.488.488,0,0,1,.211.5l-2,12a.492.492,0,0,1-.25.352A.479.479,0,0,1,11.5,1a.526.526,0,0,1-.187-.039L7.773-.484,5.883,1.82A.46.46,0,0,1,5.5,2a.422.422,0,0,1-.172-.031A.5.5,0,0,1,5,1.5V-1.227L11.75-9.5,3.4-2.273.313-3.539A.459.459,0,0,1,0-3.969.463.463,0,0,1,.25-4.43l13-7.5A.478.478,0,0,1,13.5-12,.485.485,0,0,1,13.781-11.914Z" transform="translate(0.001 12)"/>
</svg>
