<svg xmlns="http://www.w3.org/2000/svg" viewBox="0 0 18.571 18.571">
  <defs>
    <style>
      .cls-1 {
        fill: #464646;
      }
    </style>
  </defs>
  <path id="Path_4" data-name="Path 4" class="cls-1" d="M11.384-4.319a4.825,4.825,0,0,0,1.473-3.538A4.815,4.815,0,0,0,11.39-11.39a4.815,4.815,0,0,0-3.532-1.468A4.815,4.815,0,0,0,4.325-11.39,4.815,4.815,0,0,0,2.857-7.857,4.815,4.815,0,0,0,4.325-4.325,4.815,4.815,0,0,0,7.857-2.857,4.806,4.806,0,0,0,11.384-4.319Zm7.187,5.748a1.373,1.373,0,0,1-.424,1,1.373,1.373,0,0,1-1,.424,1.326,1.326,0,0,1-1-.424L12.31-1.384A7.643,7.643,0,0,1,7.857,0,7.721,7.721,0,0,1,4.8-.619,7.856,7.856,0,0,1,2.294-2.294,7.856,7.856,0,0,1,.619-4.8,7.721,7.721,0,0,1,0-7.857,7.721,7.721,0,0,1,.619-10.91a7.856,7.856,0,0,1,1.674-2.511A7.856,7.856,0,0,1,4.8-15.095a7.721,7.721,0,0,1,3.052-.619,7.721,7.721,0,0,1,3.052.619,7.856,7.856,0,0,1,2.511,1.674,7.856,7.856,0,0,1,1.674,2.511,7.721,7.721,0,0,1,.619,3.052A7.643,7.643,0,0,1,14.33-3.4L18.158.424A1.367,1.367,0,0,1,18.571,1.429Z" transform="translate(0 15.714)"/>
</svg>
