<?xml version="1.0" encoding="UTF-8"?>
<svg fill="#484848" width="100pt" height="100pt" version="1.1" viewBox="0 0 100 100" xmlns="http://www.w3.org/2000/svg">
 <path d="m89.523 20c0 0.875-0.10156 1.7461-0.29688 2.6016h-78.453c-0.19531-0.85547-0.29688-1.7266-0.29688-2.6016 0.10938-6.6875 5.5586-12.051 12.25-12.051h11.699c-0.015625-2.1016 0.8125-4.125 2.2969-5.6172 1.4805-1.4922 3.5-2.332 5.6016-2.332h15.402c4.3125 0.054688 7.7773 3.582 7.75 7.8984h11.699c6.7461-0.054688 12.266 5.3555 12.348 12.102zm-75.398 8.1992h71.75v60.801c0.13672 5.043-3.2891 9.4922-8.1992 10.648-0.86328 0.24219-1.7539 0.36328-2.6523 0.35156h-50.449c-2.8359-0.066406-5.5312-1.2578-7.4922-3.3086-1.9609-2.0547-3.0234-4.8047-2.957-7.6406zm50 57.5c0 1.9883 1.6133 3.6016 3.6016 3.6016h0.25c1.9961-0.10938 3.5352-1.8047 3.4492-3.8008v-42.648c0.046875-0.44922 0.046875-0.90234 0-1.3516-0.51172-1.7344-2.2148-2.832-4.0078-2.5781-1.7891 0.25-3.125 1.7695-3.1445 3.5781v43.199zm-18 0c0 1.9883 1.6133 3.6016 3.6016 3.6016h0.75c1.9688-0.13281 3.4609-1.8281 3.3477-3.8008v-42.699c0.10156-0.42969 0.10156-0.875 0-1.3008-0.43359-1.5938-1.8984-2.6836-3.5508-2.6484-1.9961 0.054688-3.5781 1.7031-3.5469 3.6992v43.148zm-18 0c0 1.9883 1.6133 3.6016 3.6016 3.6016 1.0195 0.058594 2.0156-0.32422 2.7344-1.0508s1.0859-1.7305 1.0156-2.75v-42.699c0.097657-0.42969 0.097657-0.875 0-1.3008-0.42187-1.8281-2.1797-3.0273-4.0352-2.7539-1.8594 0.27344-3.1914 1.9297-3.0664 3.8047v43.148z"/>
</svg>
