<svg xmlns="http://www.w3.org/2000/svg" viewBox="0 0 214.377 158.453">
  <defs>
    <style>
      .cls-1 {
        fill: #2294e3;
      }
    </style>
  </defs>
  <g id="Group_9" data-name="Group 9" transform="translate(-4 -968.362)">
    <path id="Path_15" data-name="Path 15" class="cls-1" d="M111.189,968.362a64.6,64.6,0,0,0-63.789,52.5,53.452,53.452,0,0,0,10.195,105.951H171.773A46.476,46.476,0,0,0,176,1034.045a64.534,64.534,0,0,0-64.808-65.682Zm0,13.981a50.765,50.765,0,0,1,36.191,14.928,51.3,51.3,0,0,1,14.71,42.453,6.991,6.991,0,0,0,6.918,7.865h2.767a32.623,32.623,0,0,1,0,65.245H57.594a39.625,39.625,0,0,1-3.641-79.081,6.991,6.991,0,0,0,6.262-6.116,51.172,51.172,0,0,1,50.973-45.293Zm0,41.943a6.261,6.261,0,0,0-4.733,1.82l-25.632,23.3a7.055,7.055,0,0,0-.437,9.9,7.314,7.314,0,0,0,9.9.437l13.908-12.67v44.784a6.991,6.991,0,0,0,13.981,0v-44.784l13.908,12.67c2.711,2.457,7.29,2.124,9.9-.437,2.754-2.7,2.25-7.42-.437-9.9l-25.632-23.3A5.894,5.894,0,0,0,111.189,1024.287Z" transform="translate(0 0)"/>
  </g>
</svg>
